<?xml version="1.0" encoding="utf-8"?>
<svg version="1.1" xmlns:xlink="http://www.w3.org/1999/xlink" width="20px" height="20px" xmlns="http://www.w3.org/2000/svg">
  <g transform="matrix(1 0 0 1 -143 -12 )">
    <path d="M 9.96540178571428 0.146294642857143  C 4.53765625 0.146294642857143  0.0967633928571424 4.58716517857143  0.0967633928571424 10.0149330357143  C 0.0967633928571424 15.4426116071429  4.53765625 19.8834598214286  9.96542410714286 19.8834598214286  C 15.3930803571429 19.8834598214286  19.8339508928571 15.4426116071429  19.8339508928571 10.0149330357143  C 19.8339508928571 4.58714285714286  15.3930803571429 0.146294642857142  9.96542410714286 0.146294642857142  Z M 6.44966517857143 7.54770089285714  C 6.4496875 5.94410714285714  6.4496875 3.10685267857143  10.2120758928571 3.10685267857143  C 13.9744866071429 3.10685267857143  13.9744866071429 5.94412946428571  13.9744866071429 7.54770089285714  C 13.9744866071429 9.15142857142857  12.4941741071429 12.1119866071429  10.2120758928571 12.17359375  C 7.99165178571428 12.17359375  6.44966517857143 9.21305803571429  6.44966517857143 7.54770089285714  Z M 9.96542410714286 19.3283482142857  C 7.12814732142857 19.3283482142857  4.53765625 18.0330357142857  2.81064732142857 15.9977455357143  C 3.05732142857143 15.3808928571429  3.36573660714286 14.7024330357143  3.79752232142857 14.3324107142857  C 4.72265625 13.5921875  7.49819196428571 12.3586383928571  7.49819196428571 12.3586383928571  L 9.22520089285714 15.6893303571429  L 9.53359375 14.8874776785714  L 9.04017857142857 13.9006026785714  L 10.0270535714286 12.9138169642857  L 11.0139285714286 13.9006026785714  L 10.5821205357143 14.9491294642857  L 10.8288839285714 15.7510044642857  L 12.6175446428571 12.48203125  C 12.6175446428571 12.48203125  15.3930580357143 13.7155580357143  16.31828125 14.45578125  C 16.7499776785714 14.7641071428571  17.0583928571429 15.3192857142857  17.2434375 15.8126339285714  C 15.578125 17.9714285714286  12.9259375 19.3283482142857  9.96540178571428 19.3283482142857  Z " fill-rule="nonzero" fill="#e4e7ed" stroke="none" fill-opacity="0.996078431372549" transform="matrix(1 0 0 1 143 12 )" />
  </g>
</svg>