<?xml version="1.0" encoding="utf-8"?>
<svg version="1.1" xmlns:xlink="http://www.w3.org/1999/xlink" width="18px" height="17px" xmlns="http://www.w3.org/2000/svg">
  <g transform="matrix(1 0 0 1 -52 -14 )">
    <path d="M 17.2917716733871 6.30136403729839  C 18.0955456149194 5.46539503528226  18.0955456149194 4.10460244455645  17.289787046371 3.26863344254032  L 14.9201423891129 0.807585685483871  C 14.5152784778226 0.387726814516129  13.9695060483871 0.155304939516129  13.3860257056452 0.155304939516129  C 12.8025453629032 0.155304939516129  12.2567729334677 0.387726814516129  11.8519090221774 0.807585685483871  L 10.9032573084677 1.79162991431452  C 10.7504410282258 1.9509513608871  10.6214402721774 2.13276524697581  10.5241935483871 2.33144846270161  L 7.49962197580645 2.33144846270161  C 7.400390625 2.13276524697581  7.27337449596774 1.94907699092742  7.12055821572581 1.79162991431452  L 6.17190650201613 0.807585685483871  C 5.76704259072581 0.387726814516129  5.22127016129032 0.155304939516129  4.63778981854839 0.155304939516129  C 4.05430947580645 0.155304939516129  3.50853704637097 0.387726814516129  3.10367313508064 0.807585685483871  L 0.732043850806452 3.26863344254032  C -0.0737147177419354 4.10460244455645  -0.0737147177419354 5.46539503528226  0.732043850806452 6.30136403729839  L 1.68069556451613 7.28540826612903  C 2.05975932459677 7.67715158770161  2.56186995967742 7.90395035282258  3.08978074596774 7.93394027217742  L 3.08978074596774 14.7191595262097  C 3.08978074596774 15.9150075604839  4.05034022177419 16.8896799395161  5.2331779233871 16.8896799395161  L 12.7906376008065 16.8896799395161  C 13.9714906754032 16.8896799395161  14.9340347782258 15.9168819304435  14.9340347782258 14.7191595262097  L 14.9340347782258 7.93394027217742  C 15.4599609375 7.90395035282258  15.9640561995968 7.67902595766129  16.3431199596774 7.28540826612903  L 17.2917716733871 6.30136403729839  Z M 16.4681514616935 3.9677734375  C 16.8948462701613 4.41012474798387  16.8948462701613 5.15799836189516  16.4701360887097 5.59847530241936  L 15.521484375 6.58251953125  C 15.259513608871 6.85430317540323  14.8943422379032 6.95551915322581  14.5410786290323 6.85430317540323  C 14.3723853326613 6.80556955645161  14.1917842741936 6.83555947580645  14.0488911290323 6.93490108366936  C 13.9079826108871 7.03236832157258  13.8246282762097 7.18981539818548  13.8246282762097 7.3547599546371  L 13.8246282762097 14.7191595262097  C 13.8246282762097 15.3395759828629  13.3602255544355 15.8456558719758  12.7886529737903 15.8456558719758  L 5.2331779233871 15.8456558719758  C 4.66160534274194 15.8456558719758  4.19720262096774 15.3395759828629  4.19720262096774 14.7191595262097  L 4.19720262096774 7.35288558467742  C 4.19720262096774 7.18794102822581  4.11384828629032 7.03236832157258  3.97293976814516 6.93302671370968  C 3.87569304435484 6.86554939516129  3.76058467741936 6.82993636592742  3.64349168346774 6.82993636592742  C 3.58990675403226 6.82993636592742  3.53433719758065 6.83743384576613  3.48075226814516 6.85242880544355  C 3.12748865927419 6.95364478326613  2.76231728830645 6.85242880544355  2.50034652217742 6.58064516129032  L 1.55169480846774 5.59660093245968  C 1.125 5.15424962197581  1.125 4.40825037802419  1.55169480846774 3.9677734375  L 3.92332409274194 1.50860005040323  C 4.11583291330645 1.30804246471774  4.36986517137097 1.19932900705645  4.63778981854839 1.19932900705645  C 4.90571446572581 1.19932900705645  5.15776209677419 1.30991683467742  5.35027091733871 1.50860005040323  L 6.29892263104839 2.49264427923387  C 6.42792338709677 2.62572454637097  6.52318548387097 2.79629221270161  6.57478578629032 2.98372920866935  C 6.63829385080645 3.21427671370968  6.85858744959677 3.37547253024194  7.11063508064516 3.37547253024194  L 10.9092111895161 3.37547253024194  C 11.1612588205645 3.37547253024194  11.383537046371 3.21427671370968  11.445060483871 2.98372920866935  C 11.4966607862903 2.79629221270161  11.5919228830645 2.62572454637097  11.7209236391129 2.49264427923387  L 12.6695753528226 1.50860005040323  C 12.8620841733871 1.30804246471774  13.1161164314516 1.19932900705645  13.384041078629 1.19932900705645  C 13.6519657258064 1.19932900705645  13.9040133568548 1.30991683467742  14.0965221774194 1.50860005040323  L 16.4681514616935 3.9677734375  Z " fill-rule="nonzero" fill="#ffffff" stroke="none" transform="matrix(1 0 0 1 52 14 )" />
  </g>
</svg>