<?xml version="1.0" encoding="utf-8"?>
<svg version="1.1" xmlns:xlink="http://www.w3.org/1999/xlink" width="17px" height="17px" xmlns="http://www.w3.org/2000/svg">
  <g transform="matrix(1 0 0 1 -91 -14 )">
    <path d="M 0 2.11868904882812  C 0 0.948569403320312  0.950420859375 0  2.11868904882812 0  L 17 0  L 17 17  L 2.11868904882812 17  C 0.948569403320312 17  0 16.0495790908203  0 14.8813109345703  L 0 2.11868904882812  Z M 1 2.11868904882812  L 1 14.8813109345703  C 1.0625 15.4635595566406  1.53615458105469 15.9375  2.11868904882812 16  L 16 16  L 16 1  L 2.11868904882812 1  C 1.5364404765625 1.0625  1.0625 1.53615458105469  1 2.11868904882812  Z M 4.13328598535156 12.4387626220703  L 4.90802557421875 10.2279040390625  L 8.38932291113281 10.2279040390625  L 9.18418560253906 12.4494949345703  C 9.25461646972656 12.6534090878906  9.41560132324219 12.75  9.59670927929687 12.75  C 9.65707860351563 12.75  9.71744791113281 12.7392676875  9.77781723535156 12.7178030625  C 9.97904829394531 12.6641414003906  10.1400331474609 12.5031565966797  10.1400331474609 12.2885101308594  C 10.1400331474609 12.22411615625  10.1299715878906 12.17045459375  10.0997869257813 12.1060606191406  L 7.36304449902344 4.75441918554688  C 7.23224432421875 4.3895201953125  6.97064394140625 4.25  6.64867425097656 4.25  C 6.33676610351563 4.25  6.08522728027344 4.3895201953125  5.95442708886719 4.75441918554688  L 3.21768466210938 12.0845959941406  C 3.19756155957031 12.1489898691406  3.1875 12.20265153125  3.1875 12.26704540625  C 3.1875 12.4709595595703  3.33842329394531 12.6534090878906  3.53965435253906 12.70707075  C 3.61008521972656 12.728535375  3.67045454394531 12.7392676875  3.74088541113281 12.7392676875  C 3.91193182421875 12.7392676875  4.06285511816406 12.6534090878906  4.13328598535156 12.4387626220703  Z M 8.08747632324219 9.32638889257812  L 5.20987216210937 9.32638889257812  L 6.34682764648437 6.21401514648437  C 6.46756627832031 5.89204545605469  6.56818182421875 5.54861110742188  6.65873579394531 5.1837121171875  C 6.74928978027344 5.54861110742188  6.85996685253906 5.89204545605469  6.97064394140625 6.20328283398437  L 8.08747632324219 9.32638889257812  Z M 10.0905275039062 9.46981513671875  L 11.5406466621094 9.46981513671875  L 11.5406466621094 11.0092432470703  C 11.5406466621094 11.2007510029297  11.6511319033203 11.2965048808594  11.8237651933594 11.2965048808594  C 12.0033036875 11.2965048808594  12.1206943154297 11.2007510029297  12.1206943154297 11.0092432470703  L 12.1206943154297 9.46981513671875  L 13.5500974628906 9.46981513671875  C 13.7296360566406 9.46981513671875  13.8125 9.35196418066406  13.8125 9.16045639160156  C 13.8125 8.97631426757813  13.7296360566406 8.85109762988281  13.5500974628906 8.85109762988281  L 12.1206943154297 8.85109762988281  L 12.1206943154297 7.3705950390625  C 12.1206943154297 7.17908723339844  12.0033036875 7.08333333886719  11.8237651933594 7.08333333886719  C 11.6511319033203 7.08333333886719  11.5406466621094 7.17908723339844  11.5406466621094 7.3705950390625  L 11.5406466621094 8.85109762988281  L 10.0905275039062 8.85109762988281  C 9.91789428027344 8.85109762988281  9.828125 8.97631426757813  9.828125 9.16045639160156  C 9.828125 9.35196418066406  9.91789428027344 9.46981513671875  10.0905275039062 9.46981513671875  Z " fill-rule="nonzero" fill="#ffffff" stroke="none" transform="matrix(1 0 0 1 91 14 )" />
  </g>
</svg>